<svg id="Calque_1" data-name="Calque 1" xmlns="http://www.w3.org/2000/svg" viewBox="0 0 448 448.89"><defs><style>.cls-1{fill:#29abe2;}.cls-2{fill:none;stroke:#29abe2;stroke-miterlimit:10;stroke-width:3px;}</style></defs><path class="cls-1" d="M261.17,239l8.43,6.44L272.86,256l-3.26,10.56L261.17,273H250.83l-8.43-6.44L239.14,256l3.26-10.56,8.43-6.44h10.34m1-3H249.82l-10,7.64L236,256l3.82,12.36,10,7.64h12.36l10-7.64L276,256l-3.82-12.36-10-7.64Z" transform="translate(-32 -31.56)"/><path class="cls-1" d="M324.21,35l110.43,84.36L476.86,256,434.64,392.64,324.21,477H187.79L77.36,392.64,35.14,256,77.36,119.36,187.79,35H324.21m1-3H186.78l-112,85.56L32,256,74.78,394.44l112,85.56H325.22l112-85.56L480,256,437.22,117.56,325.22,32Z" transform="translate(-32 -31.56)"/><line class="cls-2" x1="154.78" y1="0.44" x2="217.82" y2="204.44"/><line class="cls-2" x1="293.22" y1="0.44" x2="230.18" y2="204.44"/><line class="cls-2" x1="240.18" y1="212.08" x2="405.22" y2="86"/><line class="cls-2" x1="244" y1="224.44" x2="448" y2="224.44"/><line class="cls-2" x1="240.18" y1="236.8" x2="405.22" y2="362.88"/><line class="cls-2" x1="230.18" y1="244.44" x2="293.22" y2="448.44"/><line class="cls-2" x1="217.82" y1="244.44" x2="154.78" y2="448.44"/><line class="cls-2" x1="207.82" y1="236.8" x2="42.78" y2="362.88"/><line class="cls-2" x1="204" y1="224.44" y2="224.44"/><line class="cls-2" x1="207.82" y1="212.08" x2="42.78" y2="86"/></svg>